<svg width="100%" height="100%" viewBox="0 0 72 72" version="1.1" xmlns="http://www.w3.org/2000/svg" xmlns:xlink="http://www.w3.org/1999/xlink"><path d="M35.998,20c-9.057,0 -16.403,7.345 -16.403,16.406c0,7.247 4.7,13.397 11.219,15.566c0.821,0.15 1.12,-0.357 1.12,-0.791c0,-0.389 -0.014,-1.421 -0.022,-2.79c-4.563,0.992 -5.526,-2.199 -5.526,-2.199c-0.746,-1.895 -1.822,-2.4 -1.822,-2.4c-1.489,-1.018 0.113,-0.997 0.113,-0.997c1.646,0.116 2.513,1.69 2.513,1.69c1.463,2.508 3.84,1.784 4.774,1.364c0.149,-1.061 0.573,-1.784 1.041,-2.194c-3.642,-0.414 -7.472,-1.821 -7.472,-8.108c0,-1.79 0.639,-3.255 1.689,-4.402c-0.169,-0.415 -0.732,-2.082 0.161,-4.341c0,0 1.377,-0.441 4.511,1.682c1.308,-0.364 2.712,-0.546 4.106,-0.552c1.394,0.006 2.797,0.188 4.107,0.552c3.132,-2.123 4.507,-1.682 4.507,-1.682c0.895,2.259 0.332,3.926 0.164,4.341c1.052,1.147 1.686,2.612 1.686,4.402c0,6.303 -3.836,7.689 -7.49,8.095c0.589,0.507 1.113,1.508 1.113,3.039c0,2.193 -0.02,3.963 -0.02,4.5c0,0.438 0.296,0.949 1.128,0.789c6.514,-2.173 11.21,-8.319 11.21,-15.564c0,-9.061 -7.346,-16.406 -16.407,-16.406Z"/></svg>