<svg width="100%" height="100%" viewBox="0 0 72 72" version="1.1" xmlns="http://www.w3.org/2000/svg" xmlns:xlink="http://www.w3.org/1999/xlink"><path d="M36,20c-4.345,0 -4.89,0.018 -6.597,0.096c-1.703,0.078 -2.866,0.348 -3.884,0.744c-1.052,0.409 -1.944,0.956 -2.834,1.845c-0.889,0.89 -1.436,1.782 -1.845,2.834c-0.396,1.018 -0.666,2.181 -0.744,3.884c-0.078,1.707 -0.096,2.252 -0.096,6.597c0,4.345 0.018,4.89 0.096,6.597c0.078,1.703 0.348,2.866 0.744,3.884c0.409,1.052 0.956,1.944 1.845,2.834c0.89,0.889 1.782,1.436 2.834,1.845c1.018,0.396 2.181,0.666 3.884,0.744c1.707,0.078 2.252,0.096 6.597,0.096c4.345,0 4.89,-0.018 6.597,-0.096c1.703,-0.078 2.866,-0.348 3.884,-0.744c1.052,-0.409 1.944,-0.956 2.834,-1.845c0.889,-0.89 1.436,-1.782 1.845,-2.834c0.396,-1.018 0.666,-2.181 0.744,-3.884c0.078,-1.707 0.096,-2.252 0.096,-6.597c0,-4.345 -0.018,-4.89 -0.096,-6.597c-0.078,-1.703 -0.348,-2.866 -0.744,-3.884c-0.409,-1.052 -0.956,-1.944 -1.845,-2.834c-0.89,-0.889 -1.782,-1.436 -2.834,-1.845c-1.018,-0.396 -2.181,-0.666 -3.884,-0.744c-1.707,-0.078 -2.252,-0.096 -6.597,-0.096Zm0,2.883c4.272,0 4.778,0.016 6.465,0.093c1.56,0.071 2.408,0.332 2.971,0.551c0.747,0.29 1.28,0.637 1.84,1.197c0.56,0.56 0.907,1.093 1.197,1.84c0.219,0.563 0.48,1.411 0.551,2.971c0.077,1.687 0.093,2.193 0.093,6.465c0,4.272 -0.016,4.778 -0.093,6.465c-0.071,1.56 -0.332,2.408 -0.551,2.971c-0.29,0.747 -0.637,1.28 -1.197,1.84c-0.56,0.56 -1.093,0.907 -1.84,1.197c-0.563,0.219 -1.411,0.48 -2.971,0.551c-1.687,0.077 -2.193,0.093 -6.465,0.093c-4.272,0 -4.778,-0.016 -6.465,-0.093c-1.56,-0.071 -2.408,-0.332 -2.971,-0.551c-0.747,-0.29 -1.28,-0.637 -1.84,-1.197c-0.56,-0.56 -0.907,-1.093 -1.197,-1.84c-0.219,-0.563 -0.48,-1.411 -0.551,-2.971c-0.077,-1.687 -0.093,-2.193 -0.093,-6.465c0,-4.272 0.016,-4.778 0.093,-6.465c0.071,-1.56 0.332,-2.408 0.551,-2.971c0.29,-0.747 0.637,-1.28 1.197,-1.84c0.56,-0.56 1.093,-0.907 1.84,-1.197c0.563,-0.219 1.411,-0.48 2.971,-0.551c1.687,-0.077 2.193,-0.093 6.465,-0.093Zm0,4.901c-4.538,0 -8.216,3.678 -8.216,8.216c0,4.538 3.678,8.216 8.216,8.216c4.538,0 8.216,-3.678 8.216,-8.216c0,-4.538 -3.678,-8.216 -8.216,-8.216Zm0,13.549c-2.946,0 -5.333,-2.387 -5.333,-5.333c0,-2.946 2.387,-5.333 5.333,-5.333c2.946,0 5.333,2.387 5.333,5.333c0,2.946 -2.387,5.333 -5.333,5.333Zm10.461,-13.874c0,1.061 -0.86,1.92 -1.92,1.92c-1.061,0 -1.92,-0.859 -1.92,-1.92c0,-1.06 0.859,-1.92 1.92,-1.92c1.06,0 1.92,0.86 1.92,1.92Z"/></svg>