<svg width="100%" height="100%" viewBox="0 0 72 72" version="1.1" xmlns="http://www.w3.org/2000/svg" xmlns:xlink="http://www.w3.org/1999/xlink"><path d="M28.696,52c14.859,0 22.984,-12.31 22.984,-22.985c0,-0.349 -0.007,-0.698 -0.023,-1.044c1.577,-1.14 2.949,-2.563 4.03,-4.183c-1.447,0.643 -3.005,1.077 -4.639,1.272c1.668,-1 2.948,-2.582 3.552,-4.469c-1.561,0.926 -3.289,1.599 -5.129,1.961c-1.474,-1.57 -3.574,-2.552 -5.897,-2.552c-4.461,0 -8.079,3.618 -8.079,8.078c0,0.634 0.071,1.25 0.209,1.842c-6.713,-0.338 -12.667,-3.553 -16.651,-8.441c-0.694,1.194 -1.094,2.581 -1.094,4.061c0,2.802 1.426,5.277 3.595,6.724c-1.325,-0.041 -2.57,-0.405 -3.659,-1.011c-0.002,0.034 -0.002,0.068 -0.002,0.103c0,3.913 2.785,7.179 6.481,7.92c-0.678,0.185 -1.392,0.284 -2.129,0.284c-0.52,0 -1.027,-0.051 -1.519,-0.146c1.029,3.21 4.011,5.546 7.547,5.611c-2.765,2.167 -6.248,3.458 -10.033,3.458c-0.652,0 -1.295,-0.037 -1.927,-0.112c3.575,2.292 7.82,3.629 12.383,3.629Z"/></svg>