<svg width="100%" height="100%" viewBox="0 0 72 72" version="1.1" xmlns="http://www.w3.org/2000/svg" xmlns:xlink="http://www.w3.org/1999/xlink"><path d="M31.479,42.782l0,-13.563l11.745,6.781l-11.745,6.782Zm26.18,-17.663c-0.52,-1.945 -2.051,-3.477 -3.996,-3.997c-3.526,-0.945 -17.663,-0.945 -17.663,-0.945c0,0 -14.137,0 -17.663,0.945c-1.945,0.52 -3.477,2.052 -3.997,3.997c-0.944,3.525 -0.944,10.881 -0.944,10.881c0,0 0,7.356 0.944,10.881c0.52,1.945 2.052,3.477 3.997,3.997c3.526,0.945 17.663,0.945 17.663,0.945c0,0 14.137,0 17.663,-0.945c1.945,-0.52 3.476,-2.052 3.996,-3.997c0.945,-3.525 0.945,-10.881 0.945,-10.881c0,0 0,-7.356 -0.945,-10.881Z"/></svg>